<?xml version="1.0" standalone="no"?>
<!DOCTYPE svg PUBLIC "-//W3C//DTD SVG 1.1//EN" "http://www.w3.org/Graphics/SVG/1.1/DTD/svg11.dtd" >
<svg xmlns="http://www.w3.org/2000/svg">
<metadata>Generated by IcoMoon</metadata>
<defs>
<font id="icomoon" horiz-adv-x="1024">
<font-face units-per-em="1024" ascent="960" descent="-64" />
<missing-glyph horiz-adv-x="1024" />
<glyph unicode="&#x20;" horiz-adv-x="512" d="" />
<glyph unicode="&#xe900;" glyph-name="empty" d="M791.552 29.184h-568.32c-40.96 0-74.752 33.792-74.752 74.752v710.656c0 40.96 33.792 74.752 74.752 74.752h568.32c40.96 0 74.752-33.792 74.752-74.752v-710.656c-1.024-40.96-33.792-74.752-74.752-74.752zM223.232 879.104c-35.84 0-64.512-28.672-64.512-64.512v-710.656c0-35.84 28.672-64.512 64.512-64.512h568.32c35.84 0 64.512 28.672 64.512 64.512v710.656c0 35.84-28.672 64.512-64.512 64.512h-568.32zM723.968 182.784h-433.152c-21.504 0-39.936 18.432-39.936 40.96s17.408 40.96 39.936 40.96h433.152c21.504 0 39.936-18.432 39.936-40.96s-18.432-40.96-39.936-40.96zM290.816 254.464c-16.384 0-29.696-13.312-29.696-30.72s13.312-30.72 29.696-30.72h433.152c16.384 0 29.696 13.312 29.696 30.72s-13.312 30.72-29.696 30.72h-433.152zM723.968 336.384h-433.152c-21.504 0-39.936 18.432-39.936 40.96s17.408 40.96 39.936 40.96h433.152c21.504 0 39.936-18.432 39.936-40.96s-18.432-40.96-39.936-40.96zM290.816 408.064c-16.384 0-29.696-14.336-29.696-30.72 0-17.408 13.312-30.72 29.696-30.72h433.152c16.384 0 29.696 14.336 29.696 30.72 0 17.408-13.312 30.72-29.696 30.72h-433.152zM723.968 489.984h-433.152c-21.504 0-39.936 18.432-39.936 40.96s17.408 40.96 39.936 40.96h433.152c21.504 0 39.936-18.432 39.936-40.96s-18.432-40.96-39.936-40.96zM290.816 561.664c-16.384 0-29.696-14.336-29.696-30.72 0-17.408 13.312-30.72 29.696-30.72h433.152c16.384 0 29.696 14.336 29.696 30.72 0 17.408-13.312 30.72-29.696 30.72h-433.152zM723.968 643.584h-433.152c-21.504 0-39.936 18.432-39.936 40.96s17.408 40.96 39.936 40.96h433.152c21.504 0 39.936-18.432 39.936-40.96-1.024-22.528-18.432-40.96-39.936-40.96zM290.816 715.264c-16.384 0-29.696-13.312-29.696-30.72s13.312-30.72 29.696-30.72h433.152c16.384 0 29.696 13.312 29.696 30.72s-13.312 30.72-29.696 30.72h-433.152z" />
<glyph unicode="&#xe901;" glyph-name="xing" d="M759.467-29.867c-12.8 0-29.867 4.267-42.667 12.8l-200.533 106.667-200.533-110.933c-29.867-17.067-64-12.8-93.867 4.267-29.867 21.333-42.667 51.2-34.133 85.333l38.4 243.2-170.667 174.933c-21.333 25.6-29.867 59.733-21.333 89.6s38.4 55.467 68.267 59.733l230.4 34.133 98.133 213.333c12.8 29.867 46.933 51.2 81.067 51.2s64-21.333 81.067-51.2l98.133-213.333 230.4-34.133c34.133-4.267 59.733-29.867 68.267-59.733s4.267-68.267-21.333-89.6l-170.667-174.933 38.4-243.2c4.267-34.133-8.533-68.267-34.133-85.333-4.267-8.533-21.333-12.8-42.667-12.8zM516.267 136.533l221.867-119.467c17.067-8.533 34.133-8.533 46.933 4.267 12.8 8.533 21.333 25.6 17.067 46.933l-42.667 264.533 183.467 192c12.8 12.8 17.067 29.867 8.533 46.933-4.267 17.067-21.333 29.867-38.4 29.867l-251.733 38.4-110.933 234.667c-8.533 17.067-25.6 25.6-42.667 25.6s-34.133-8.533-42.667-25.6l-98.133-238.933-251.733-38.4c-17.067-4.267-34.133-17.067-38.4-34.133s0-34.133 8.533-46.933l183.467-192-42.667-264.533c-4.267-17.067 4.267-34.133 17.067-46.933 12.8-8.533 34.133-12.8 46.933-4.267l226.133 128z" />
<glyph unicode="&#xe902;" glyph-name="close" d="M849.318 700.988l-84.329 90.353-252.988-259.012-259.012 259.012-84.329-90.353 259.012-252.988-259.012-252.988 84.329-90.353 259.012 259.012 252.988-259.012 84.329 90.353-252.988 252.988z" />
<glyph unicode="&#xe903;" glyph-name="add" d="M843.294 538.353h-240.941v240.941c0 36.141-24.094 60.235-60.235 60.235s-60.235-24.094-60.235-60.235v-240.941h-240.941c-36.141 0-60.235-24.094-60.235-60.235s24.094-60.235 60.235-60.235h240.941v-240.941c0-36.141 24.094-60.235 60.235-60.235s60.235 24.094 60.235 60.235v240.941h240.941c36.141 0 60.235 24.094 60.235 60.235s-24.094 60.235-60.235 60.235z" />
<glyph unicode="&#xe904;" glyph-name="search" d="M945.694 98.635l-222.871 222.871c102.4 144.565 90.353 343.341-36.141 469.835-144.565 144.565-373.459 144.565-518.024 0s-144.565-373.459 0-518.024c126.494-126.494 325.271-138.541 469.835-36.141l222.871-222.871c24.094-24.094 60.235-24.094 84.329 0s24.094 60.235 0 84.329zM252.988 357.647c-96.376 96.376-96.376 252.988 0 343.341 96.376 96.376 246.965 96.376 343.341 0s96.376-252.988 0-343.341-246.965-90.353-343.341 0z" />
<glyph unicode="&#xe905;" glyph-name="select" d="M813.176 929.882h-602.353c-102.4 0-180.706-78.306-180.706-180.706v-602.353c0-102.4 78.306-180.706 180.706-180.706h602.353c102.4 0 180.706 78.306 180.706 180.706v602.353c0 102.4-78.306 180.706-180.706 180.706zM439.718 225.129l-246.965 234.918 42.165 42.165 204.8-198.776 355.388 343.341 42.165-42.165-397.553-379.482z" />
<glyph unicode="&#xe906;" glyph-name="collect-background" d="M490.667 917.333c290.133 0 469.333-179.2 469.333-469.333s-179.2-469.333-469.333-469.333-469.333 179.2-469.333 469.333c0 290.133 179.2 469.333 469.333 469.333z" />
<glyph unicode="&#xe907;" glyph-name="delete" d="M451.765 538.353c-18.071 0-30.118-12.047-30.118-30.118v-301.176c0-18.071 12.047-30.118 30.118-30.118s30.118 12.047 30.118 30.118v301.176c0 18.071-12.047 30.118-30.118 30.118zM843.294 719.059h-120.471v60.235c0 36.141-24.094 60.235-60.235 60.235h-240.941c-36.141 0-60.235-24.094-60.235-60.235v-60.235h-240.941v-60.235h60.235v-602.353c0-36.141 24.094-60.235 60.235-60.235h602.353c36.141 0 60.235 24.094 60.235 60.235v602.353h60.235v60.235h-120.471zM421.647 719.059c0 36.141 24.094 60.235 60.235 60.235h120.471c36.141 0 60.235-24.094 60.235-60.235v0h-240.941zM843.294 122.729c0-36.141-30.118-66.259-72.282-66.259h-457.788c-42.165 0-72.282 30.118-72.282 66.259v469.835c0 36.141 30.118 66.259 72.282 66.259h463.812c36.141 0 66.259-30.118 66.259-66.259v-469.835zM632.471 538.353c-18.071 0-30.118-12.047-30.118-30.118v-301.176c0-18.071 12.047-30.118 30.118-30.118s30.118 12.047 30.118 30.118v301.176c0 18.071-12.047 30.118-30.118 30.118z" />
<glyph unicode="&#xe908;" glyph-name="edit" d="M90.353-21.835c0 0 0 0 0 0-6.024 0-12.047 0-12.047 0h-6.024c-6.024 0-6.024 6.024-12.047 6.024l-12.047 12.047c0 0-6.024 6.024-6.024 6.024l-6.024 12.047c0 0 0 0 0 0s0 6.024 0 12.047c0 6.024 0 6.024 0 12.047v12.047l24.094 246.965c0 6.024 6.024 18.071 18.071 24.094l512 512c36.141 36.141 84.329 54.212 138.541 54.212 114.447-6.024 210.824-96.376 210.824-210.824 0-48.188-18.071-96.376-48.188-132.518 0-6.024-6.024-6.024-6.024-12.047l-505.976-505.976c-6.024-12.047-18.071-18.071-24.094-18.071h-6.024l-246.965-18.071c-6.024-12.047-6.024-12.047-12.047-12.047zM114.447 273.318l-18.071-234.918 240.941 18.071 505.976 518.024c24.094 24.094 36.141 60.235 36.141 96.376 0 84.329-72.282 150.588-156.612 156.612-36.141 0-72.282-12.047-102.4-36.141v-12.047l-505.976-505.976zM537.755 737.16l240.27-245.249-43.026-42.153-240.27 245.249 43.026 42.153z" />
<glyph unicode="&#xe909;" glyph-name="project-logo" d="M989.867 635.733l-483.556 329.956-483.556-329.956 483.556-329.956 483.556 329.956zM506.311 231.822l-426.667 281.6-56.889-59.733 483.556-329.956 483.556 329.956-56.889 59.733-426.667-281.6zM506.311 49.778l-426.667 281.6-56.889-59.733 483.556-329.956 483.556 329.956-56.889 59.733-426.667-281.6z" />
<glyph unicode="&#xe90a;" glyph-name="collect-small" d="M512 917.333c-290.133 0-469.333-179.2-469.333-469.333s179.2-469.333 469.333-469.333c290.133 0 469.333 179.2 469.333 469.333s-179.2 469.333-469.333 469.333zM759.467 473.6l-98.133-102.4 21.333-136.533c4.267-12.8-4.267-29.867-17.067-38.4-4.267-4.267-12.8-8.533-21.333-8.533-4.267 0-12.8 0-17.067 4.267l-115.2 68.267-115.2-64c-8.533-4.267-12.8-4.267-17.067-4.267-8.533 0-12.8 4.267-21.333 8.533-12.8 8.533-17.067 21.333-17.067 34.133l21.333 140.8-98.133 102.4c-8.533 8.533-12.8 21.333-8.533 34.133s17.067 21.333 29.867 25.6l132.267 21.333 59.733 123.733c8.533 12.8 21.333 21.333 34.133 21.333s25.6-8.533 34.133-21.333l59.733-123.733 132.267-21.333c12.8 0 25.6-12.8 29.867-25.6s0-25.6-8.533-38.4z" />
<glyph unicode="&#xe90b;" glyph-name="collect-star" d="M512 901.486c-29.257 0-51.2-14.629-58.514-36.571l-102.4-212.114-226.743-36.571c-21.943 0-43.886-21.943-51.2-43.886s0-43.886 14.629-58.514l168.229-175.543-36.571-241.371c-7.314-21.943 7.314-51.2 29.257-65.829 7.314-7.314 21.943-14.629 36.571-14.629 7.314 0 21.943 0 29.257 7.314l197.486 117.029 197.486-109.714c7.314-7.314 21.943-7.314 29.257-7.314 14.629 0 21.943 7.314 36.571 14.629 21.943 14.629 29.257 36.571 29.257 65.829l-36.571 241.371 168.229 175.543c14.629 7.314 14.629 29.257 7.314 51.2s-29.257 36.571-51.2 43.886l-226.743 36.571-95.086 212.114c-14.629 21.943-36.571 36.571-58.514 36.571v0z" />
<glyph unicode="&#xe90c;" glyph-name="more" d="M102.4 721.067h887.467c20.48 0 34.133 13.653 34.133 34.133s-13.653 34.133-34.133 34.133h-887.467c-20.48 0-34.133-13.653-34.133-34.133s13.653-34.133 34.133-34.133zM989.867 448h-887.467c-20.48 0-34.133-13.653-34.133-34.133s13.653-34.133 34.133-34.133h887.467c20.48 0 34.133 13.653 34.133 34.133s-13.653 34.133-34.133 34.133zM989.867 106.667h-887.467c-20.48 0-34.133-13.653-34.133-34.133s13.653-34.133 34.133-34.133h887.467c20.48 0 34.133 13.653 34.133 34.133s-13.653 34.133-34.133 34.133z" />
<glyph unicode="&#xe90d;" glyph-name="all" d="M398.222 391.111h-227.556c-34.133 0-56.889-22.756-56.889-56.889v-227.556c0-34.133 22.756-56.889 56.889-56.889h227.556c34.133 0 56.889 22.756 56.889 56.889v227.556c0 34.133-22.756 56.889-56.889 56.889zM398.222 106.667h-227.556v227.556h227.556v-227.556zM398.222 846.222h-227.556c-34.133 0-56.889-22.756-56.889-56.889v-227.556c0-34.133 22.756-56.889 56.889-56.889h227.556c34.133 0 56.889 22.756 56.889 56.889v227.556c0 34.133-22.756 56.889-56.889 56.889zM398.222 561.778h-227.556v227.556h227.556v-227.556zM853.333 846.222h-227.556c-34.133 0-56.889-22.756-56.889-56.889v-227.556c0-34.133 22.756-56.889 56.889-56.889h227.556c34.133 0 56.889 22.756 56.889 56.889v227.556c0 34.133-22.756 56.889-56.889 56.889zM853.333 561.778h-227.556v227.556h227.556v-227.556zM853.333 391.111h-227.556c-34.133 0-56.889-22.756-56.889-56.889v-227.556c0-34.133 22.756-56.889 56.889-56.889h227.556c34.133 0 56.889 22.756 56.889 56.889v227.556c0 34.133-22.756 56.889-56.889 56.889zM853.333 106.667h-227.556v227.556h227.556v-227.556z" />
<glyph unicode="&#xe90e;" glyph-name="count" d="M853.333 846.222v113.778h-56.889v-113.778h-568.889v113.778h-56.889v-113.778h-170.667v-910.222h1024v910.222h-170.667zM967.111-7.111h-910.222v796.444h113.778v-113.778h56.889v113.778h113.778v-113.778h56.889v113.778h227.556v-113.778h56.889v113.778h113.778v-113.778h56.889v113.778h113.778v-796.444zM466.489 254.578l-136.533 136.533-45.511-45.511 182.044-182.044 45.511 45.511 221.867 233.244-45.511 45.511-221.867-233.244z" />
<glyph unicode="&#xe90f;" glyph-name="down" d="M887.467 652.8c-17.067 17.067-42.667 17.067-59.733 0l-315.733-324.267-315.733 324.267c-17.067 17.067-42.667 17.067-59.733 0s-17.067-42.667 0-59.733l341.333-349.867c17.067-17.067 42.667-17.067 59.733 0l341.333 349.867c17.067 17.067 17.067 42.667 8.533 59.733z" />
<glyph unicode="&#xe910;" glyph-name="collect" d="M806.4-29.867c-4.267 0-4.267 0-8.533 0l-277.333 132.267-277.333-132.267c-8.533-4.267-17.067-4.267-21.333 0-4.267 8.533-8.533 17.067-8.533 21.333l38.4 307.2-209.067 226.133c-4.267 12.8-4.267 17.067-4.267 25.6 4.267 8.533 8.533 12.8 17.067 17.067l298.667 59.733 145.067 273.067c8.533 12.8 29.867 12.8 38.4 0l145.067-273.067 298.667-59.733c8.533 0 12.8-8.533 17.067-12.8 4.267-8.533 0-17.067-4.267-21.333l-209.067-226.133 38.4-307.2c0-8.533-4.267-17.067-8.533-21.333 0-8.533-4.267-8.533-8.533-8.533zM520.533 149.333c4.267 0 4.267 0 8.533 0l247.467-119.467-34.133 281.6c0 4.267 0 12.8 4.267 17.067l187.733 204.8-273.067 51.2c-4.267 0-12.8 4.267-12.8 12.8l-132.267 247.467-128-251.733c-4.267-4.267-8.533-8.533-12.8-8.533l-273.067-51.2 187.733-204.8c4.267-8.533 8.533-17.067 8.533-21.333l-34.133-281.6 247.467 119.467c4.267 4.267 4.267 4.267 8.533 4.267z" />
<glyph unicode="&#xe911;" glyph-name="task" d="M790.756 846.222h-614.4c-34.133 0-62.578-28.444-62.578-62.578v-728.178c0-34.133 28.444-62.578 62.578-62.578h614.4c34.133 0 62.578 28.444 62.578 62.578v728.178c0 34.133-28.444 62.578-62.578 62.578zM796.444 100.978c0-28.444-22.756-51.2-51.2-51.2h-523.378c-28.444 0-51.2 22.756-51.2 51.2v637.156c0 28.444 22.756 51.2 51.2 51.2h523.378c28.444 0 51.2-22.756 51.2-51.2v-637.156zM648.533 618.667h-329.956c-22.756 0-34.133-11.378-34.133-28.444s11.378-28.444 34.133-28.444h335.644c17.067 0 28.444 11.378 28.444 28.444s-11.378 28.444-34.133 28.444zM648.533 277.333h-329.956c-22.756 0-34.133-11.378-34.133-28.444s11.378-28.444 34.133-28.444h335.644c17.067 0 34.133 11.378 34.133 28.444-5.689 17.067-17.067 28.444-39.822 28.444zM648.533 448h-329.956c-22.756 0-34.133-11.378-34.133-28.444s11.378-28.444 34.133-28.444h335.644c17.067 0 34.133 11.378 34.133 28.444s-17.067 28.444-39.822 28.444z" />
<glyph unicode="&#xe912;" glyph-name="email" d="M896 810.667h-768c-46.933 0-85.333-38.4-85.333-85.333v-597.333c0-46.933 38.4-85.333 85.333-85.333h768c46.933 0 85.333 38.4 85.333 85.333v597.333c0 46.933-38.4 85.333-85.333 85.333zM938.667 162.133c0-42.667-34.133-76.8-76.8-76.8h-699.733c-42.667 0-76.8 34.133-76.8 76.8v392.533l430.933-170.667 422.4 170.667v-392.533zM938.667 597.333l-426.667-170.667-426.667 170.667v93.867c0 42.667 34.133 76.8 76.8 76.8h699.733c42.667 0 76.8-34.133 76.8-76.8v-93.867z" />
<glyph unicode="&#xe913;" glyph-name="group-chat" d="M571.733 448h-341.333c-12.8 0-21.333-8.533-21.333-21.333s8.533-21.333 21.333-21.333h341.333c12.8 0 21.333 8.533 21.333 21.333s-12.8 21.333-21.333 21.333zM891.733 832h-554.667c-46.933 0-85.333-38.4-85.333-85.333v-85.333h-128c-46.933 0-85.333-38.4-85.333-85.333v-384c0-46.933 38.4-85.333 85.333-85.333h85.333v-128l213.333 128h256c46.933 0 85.333 38.4 85.333 85.333v85.333h128c46.933 0 85.333 38.4 85.333 85.333v384c0 46.933-38.4 85.333-85.333 85.333zM721.067 192c0-25.6-17.067-42.667-42.667-42.667h-298.667l-128-85.333v85.333h-128c-25.6 0-42.667 17.067-42.667 42.667v384c0 25.6 17.067 42.667 42.667 42.667h554.667c25.6 0 42.667-17.067 42.667-42.667v-384zM934.4 362.667c0-25.6-17.067-42.667-42.667-42.667h-128v256c0 46.933-38.4 85.333-85.333 85.333h-384v85.333c0 25.6 17.067 42.667 42.667 42.667h554.667c25.6 0 42.667-17.067 42.667-42.667v-384zM571.733 320h-341.333c-12.8 0-21.333-8.533-21.333-21.333s8.533-21.333 21.333-21.333h341.333c12.8 0 21.333 8.533 21.333 21.333s-12.8 21.333-21.333 21.333z" />
<glyph unicode="&#xe914;" glyph-name="project" d="M517.689 231.822l-466.489 233.244 22.756 51.2 443.733-221.867 438.044 221.867 28.444-51.2zM517.689 402.489l-460.8 227.556 460.8 233.244 460.8-233.244-460.8-227.556zM182.044 630.044l335.644-170.667 335.644 170.667-335.644 170.667-335.644-170.667zM517.689 61.156l-466.489 233.244 22.756 51.2 443.733-221.867 438.044 221.867 28.444-51.2z" />
<glyph unicode="&#xe915;" glyph-name="check-box" d="M873.412 869.647c36.141 0 60.235-24.094 60.235-60.235v-722.824c0-36.141-24.094-60.235-60.235-60.235h-722.824c-36.141 0-60.235 24.094-60.235 60.235v722.824c0 36.141 24.094 60.235 60.235 60.235h722.824zM873.412 929.882h-722.824c-66.259 0-120.471-54.212-120.471-120.471v-722.824c0-66.259 54.212-120.471 120.471-120.471h722.824c66.259 0 120.471 54.212 120.471 120.471v722.824c0 66.259-54.212 120.471-120.471 120.471v0z" />
<glyph unicode="&#xe916;" glyph-name="comment" d="M355.388 502.212c-24.094 0-48.188-24.094-48.188-54.212s24.094-54.212 54.212-54.212c30.118 0 54.212 24.094 54.212 54.212-6.024 30.118-30.118 54.212-60.235 54.212v0zM512 502.212c-30.118 0-48.188-24.094-48.188-54.212s18.071-48.188 48.188-48.188c30.118 0 54.212 18.071 54.212 48.188s-24.094 54.212-54.212 54.212v0zM668.612 502.212c-30.118 0-54.212-24.094-54.212-54.212s24.094-54.212 54.212-54.212c30.118 6.024 54.212 24.094 54.212 54.212s-24.094 54.212-54.212 54.212v0zM512 755.2c168.659 0 307.2-138.541 307.2-307.2 0-60.235-24.094-126.494-54.212-180.706-48.188-84.329 48.188-66.259 54.212-132.518-42.165 0-234.918 0-289.129 0-204.8 0-331.294 138.541-331.294 313.224 6.024 168.659 144.565 307.2 313.224 307.2v0zM512 809.412c-48.188 0-96.376-12.047-138.541-30.118-48.188-18.071-84.329-42.165-114.447-78.306-36.141-30.118-60.235-66.259-78.306-114.447-18.071-42.165-30.118-90.353-30.118-138.541 0-96.376 36.141-186.729 102.4-252.988 36.141-36.141 72.282-60.235 120.471-78.306s102.4-30.118 156.612-30.118c12.047 0 289.129 0 289.129 0 12.047 0 30.118 6.024 36.141 18.071 12.047 12.047 18.071 24.094 18.071 36.141 0 24.094-12.047 42.165-24.094 60.235-12.047 12.047-24.094 24.094-36.141 30.118 0 0-6.024 6.024-6.024 6.024s0 6.024 6.024 6.024c18.071 30.118 36.141 60.235 42.165 96.376 12.047 36.141 18.071 72.282 18.071 108.424 0 48.188-12.047 96.376-30.118 138.541s-42.165 84.329-78.306 114.447c-36.141 30.118-72.282 60.235-114.447 78.306s-90.353 30.118-138.541 30.118v0z" />
<glyph unicode="&#xe917;" glyph-name="download" d="M768 192h-512c-25.6 0-42.667-17.067-42.667-42.667s17.067-42.667 42.667-42.667h512c25.6 0 42.667 17.067 42.667 42.667s-17.067 42.667-42.667 42.667zM477.867 298.667c0-4.267 4.267-8.533 4.267-8.533 8.533-8.533 17.067-12.8 29.867-12.8 0 0 0 0 0 0s0 0 0 0c8.533 0 21.333 4.267 29.867 12.8 4.267 4.267 4.267 4.267 4.267 8.533l166.4 166.4c17.067 17.067 17.067 42.667 0 59.733s-42.667 17.067-59.733 0l-98.133-102.4v324.267c0 25.6-17.067 42.667-42.667 42.667s-42.667-17.067-42.667-42.667v-324.267l-102.4 102.4c-17.067 17.067-42.667 17.067-59.733 0s-17.067-42.667 0-59.733l170.667-166.4z" />
<glyph unicode="&#xe918;" glyph-name="enclosure" d="M785.067 345.6c12.8 12.8 12.8 29.867 0 42.667s-29.867 12.8-38.4 0v0l-226.133-226.133c-64-55.467-162.133-51.2-221.867 12.8s-55.467 162.133-4.267 234.667l315.733 341.333c42.667 29.867 98.133 25.6 136.533-17.067 38.4-38.4 42.667-102.4 12.8-145.067l-294.4-298.667c0-4.267-4.267-4.267-4.267-8.533-12.8-17.067-38.4-17.067-55.467 0-12.8 17.067-12.8 42.667 0 55.467 0 0 4.267 4.267 8.533 4.267l226.133 234.667c0 0 0 0 4.267 4.267 12.8 12.8 12.8 29.867 0 42.667s-29.867 12.8-38.4 0c0 0 0 0 0 0v0l-226.133-230.4c0 0-4.267-4.267-4.267-4.267-38.4-38.4-38.4-102.4 0-145.067 38.4-38.4 98.133-38.4 136.533 0 0 0 4.267 4.267 4.267 8.533l290.133 294.4c51.2 68.267 42.667 170.667-17.067 230.4-59.733 64-153.6 68.267-217.6 17.067l-315.733-341.333c-81.067-89.6-85.333-230.4-4.267-315.733 81.067-89.6 226.133-93.867 315.733-17.067v0l217.6 226.133z" />
<glyph unicode="&#xe919;" glyph-name="emo" d="M512 21.333c-234.667 0-426.667 192-426.667 426.667s192 426.667 426.667 426.667c234.667 0 426.667-192 426.667-426.667s-192-426.667-426.667-426.667zM512 823.467c-204.8 0-375.467-166.4-375.467-375.467 0-204.8 166.4-375.467 375.467-375.467 204.8 0 375.467 166.4 375.467 375.467 0 204.8-170.667 375.467-375.467 375.467zM512 196.267c-85.333 0-162.133 38.4-217.6 102.4-8.533 12.8-8.533 29.867 4.267 38.4s29.867 8.533 38.4-4.267c42.667-51.2 110.933-81.067 179.2-81.067s132.267 29.867 179.2 81.067c8.533 12.8 25.6 12.8 38.4 4.267s12.8-25.6 4.267-38.4c-64-68.267-140.8-102.4-226.133-102.4zM375.467 448c-25.6 0-42.667 21.333-42.667 42.667v59.733c0 25.6 21.333 42.667 42.667 42.667s42.667-21.333 42.667-42.667v-59.733c0-21.333-17.067-42.667-42.667-42.667zM648.533 448c-25.6 0-42.667 21.333-42.667 42.667v59.733c0 25.6 21.333 42.667 42.667 42.667 25.6 0 42.667-21.333 42.667-42.667v-59.733c0-21.333-21.333-42.667-42.667-42.667z" />
<glyph unicode="&#xe91a;" glyph-name="information" d="M512 899.765c-234.918 0-421.647-186.729-421.647-421.647s186.729-421.647 421.647-421.647 421.647 186.729 421.647 421.647-186.729 421.647-421.647 421.647v0zM512 116.706c-198.776 0-361.412 162.635-361.412 361.412s162.635 361.412 361.412 361.412 361.412-162.635 361.412-361.412c0-198.776-162.635-361.412-361.412-361.412v0zM536.094 610.635c36.141 0 54.212 24.094 54.212 54.212 0 24.094-6.024 42.165-36.141 42.165-42.165 0-54.212-30.118-54.212-54.212-6.024-24.094 6.024-42.165 36.141-42.165v0zM548.141 321.506c-6.024 0-6.024 6.024 0 30.118l30.118 120.471c12.047 42.165 6.024 72.282-12.047 72.282-24.094 0-90.353-30.118-144.565-78.306l12.047-18.071c12.047 12.047 36.141 24.094 48.188 24.094 0 0 0-6.024 0-24.094l-24.094-114.447c-18.071-66.259 0-78.306 24.094-78.306s78.306 24.094 132.518 78.306l-12.047 18.071c-30.118-24.094-48.188-30.118-54.212-30.118v0z" />
<glyph unicode="&#xe91b;" glyph-name="up" d="M887.467 243.2c-17.067-17.067-42.667-17.067-59.733 0l-315.733 315.733-315.733-315.733c-17.067-17.067-42.667-17.067-59.733 0s-17.067 42.667 0 59.733l341.333 349.867c17.067 17.067 42.667 17.067 59.733 0l341.333-349.867c17.067-17.067 17.067-42.667 8.533-59.733z" />
<glyph unicode="&#xe91c;" glyph-name="xingxing" d="M759.467-29.867c-12.8 0-29.867 4.267-42.667 12.8l-200.533 106.667-200.533-110.933c-29.867-17.067-64-12.8-93.867 4.267-29.867 21.333-42.667 51.2-34.133 85.333l38.4 243.2-170.667 174.933c-21.333 25.6-29.867 59.733-21.333 89.6s38.4 55.467 68.267 59.733l230.4 34.133 98.133 213.333c12.8 29.867 46.933 51.2 81.067 51.2s64-21.333 81.067-51.2l98.133-213.333 230.4-34.133c34.133-4.267 59.733-29.867 68.267-59.733s4.267-68.267-21.333-89.6l-170.667-174.933 38.4-243.2c4.267-34.133-8.533-68.267-34.133-85.333-4.267-8.533-21.333-12.8-42.667-12.8zM516.267 136.533l221.867-119.467c17.067-8.533 34.133-8.533 46.933 4.267 12.8 8.533 21.333 25.6 17.067 46.933l-42.667 264.533 183.467 192c12.8 12.8 17.067 29.867 8.533 46.933-4.267 17.067-21.333 29.867-38.4 29.867l-251.733 38.4-110.933 234.667c-8.533 17.067-25.6 25.6-42.667 25.6s-34.133-8.533-42.667-25.6l-98.133-238.933-251.733-38.4c-17.067-4.267-34.133-17.067-38.4-34.133s0-34.133 8.533-46.933l183.467-192-42.667-264.533c-4.267-17.067 4.267-34.133 17.067-46.933 12.8-8.533 34.133-12.8 46.933-4.267l226.133 128z" />
</font>
</defs>
</svg>
