<?xml version="1.0" standalone="no"?>
<!DOCTYPE svg PUBLIC "-//W3C//DTD SVG 1.1//EN" "http://www.w3.org/Graphics/SVG/1.1/DTD/svg11.dtd" >
<svg xmlns="http://www.w3.org/2000/svg">
<metadata>Generated by IcoMoon</metadata>
<defs>
<font id="icomoon" horiz-adv-x="1024">
<font-face units-per-em="1024" ascent="960" descent="-64" />
<missing-glyph horiz-adv-x="1024" />
<glyph unicode="&#x20;" horiz-adv-x="512" d="" />
<glyph unicode="&#xe900;" glyph-name="add" d="M910.222 504.889h-398.222v398.222h-56.889v-398.222h-398.222v-56.889h398.222v-398.222h56.889v398.222h398.222z" />
<glyph unicode="&#xe901;" glyph-name="all" d="M389.348 391.111h-275.57c-31.403 0-56.889-25.486-56.889-56.889v-275.57c0-31.403 25.486-65.764 56.889-65.764h284.444c31.403 0 56.889 25.486 56.889 56.889v284.444c0 31.403-34.361 56.889-65.764 56.889zM398.222 49.778h-284.444v284.444h284.444v-284.444zM901.348 903.111h-275.57c-31.403 0-56.889-25.486-56.889-56.889v-275.57c0-31.403 25.486-65.764 56.889-65.764h284.444c31.403 0 56.889 25.486 56.889 56.889v284.444c0 31.403-34.361 56.889-65.764 56.889zM910.222 561.778h-284.444v284.444h284.444v-284.444zM390.087 903.111h-276.309c-31.403 0-56.889-25.486-56.889-56.889v-276.309c0-31.403 25.486-65.024 56.889-65.024h284.444c31.403 0 56.889 25.486 56.889 56.889v284.444c0 31.403-33.621 56.889-65.024 56.889zM398.222 561.778h-284.444v284.444h284.444v-284.444zM910.222 391.111h-284.444c-31.403 0-56.889-25.486-56.889-56.889v-275.57c0-31.403 25.486-65.764 56.889-65.764h284.444c31.403 0 56.889 25.486 56.889 56.889v284.444c0 31.403-25.486 56.889-56.889 56.889zM910.222 49.778h-284.444v284.444h284.444v-284.444z" />
<glyph unicode="&#xe902;" glyph-name="batch" d="M454.592 887.040l-214.144-224.704-118.976 124.8c-13.12 13.824-34.432 13.824-47.616 0-13.12-13.76-13.12-36.16 0-49.92l142.784-149.824c13.12-13.76 34.432-13.76 47.616 0l237.952 249.728c13.12 13.76 13.12 36.16 0 49.92-13.184 13.824-34.496 13.824-47.616 0zM385.088 384h-256c-35.328 0-64-28.672-64-64v-256c0-35.328 28.672-64 64-64h256c35.328 0 62.912 28.672 62.912 64v256c0 35.328-27.584 64-62.912 64zM385.088 64h-257.088v256h257.088v-256zM897.088 384h-256c-35.328 0-64-28.672-64-64v-256c0-35.328 28.672-64 64-64h256c35.328 0 62.912 28.672 62.912 64v256c0 35.328-27.584 64-62.912 64zM897.088 64h-257.088v256h257.088v-256zM896 896h-256c-35.328 0-64-28.672-64-64v-256c0-35.328 28.672-64 64-64h256c35.328 0 64 28.672 64 64v256c0 35.328-28.672 64-64 64zM897.088 576h-257.088v256h257.088v-256z" />
<glyph unicode="&#xe903;" glyph-name="cellect" d="M881.778 903.111h-739.556c-47.104 0-85.333-38.229-85.333-85.333v-739.556c0-47.104 38.229-85.333 85.333-85.333h739.556c47.161 0 85.333 38.229 85.333 85.333v739.556c0 47.104-38.172 85.333-85.333 85.333zM910.222 49.778h-796.444v170.667h227.556l56.889-113.778h227.556l56.889 113.778h227.556v-170.667zM910.222 277.333h-284.444l-56.889-113.778h-113.778l-56.889 113.778h-284.444v512c0 31.403 25.486 56.889 56.889 56.889h682.667c31.403 0 56.889-25.486 56.889-56.889v-512zM597.276 512.74l-85.276-86.13v277.39c0 15.701-12.743 28.444-28.444 28.444s-28.444-12.743-28.444-28.444v-273.067l-66.788 66.844c-10.638 10.638-27.876 10.638-38.457 0-10.638-10.638-10.638-27.876 0-38.514l108.828-108.942c1.365-5.12 3.527-10.069 7.509-14.108 12.060-12.174 31.63-12.174 43.691 0l131.072 132.38c12.060 12.174 12.060 31.972 0 44.146s-31.63 12.174-43.691 0z" />
<glyph unicode="&#xe904;" glyph-name="cha" d="M950.857 733.257l-103.424 103.424-310.345-310.345-310.272 310.345-103.497-103.424 310.345-310.345-310.345-310.345 103.497-103.424 310.272 310.345 310.345-310.345 103.424 103.424-310.345 310.345z" />
<glyph unicode="&#xe905;" glyph-name="day-left" d="M708.181-64l-495.531 487.595 495.531 487.68 59.819-60.843-433.664-426.837 433.664-426.752z" />
<glyph unicode="&#xe906;" glyph-name="day-right" d="M272.469-64l495.531 487.595-495.531 487.68-59.819-60.843 433.664-426.837-433.664-426.752z" />
<glyph unicode="&#xe907;" glyph-name="done-no" d="M877.714 886.857c40.302 0 73.143-32.841 73.143-73.143v-731.429c0-40.302-32.841-73.143-73.143-73.143h-731.429c-40.302 0-73.143 32.841-73.143 73.143v731.429c0 40.302 32.841 73.143 73.143 73.143h731.429zM877.714 960h-731.429c-80.823 0-146.286-65.463-146.286-146.286v-731.429c0-80.823 65.463-146.286 146.286-146.286h731.429c80.823 0 146.286 65.463 146.286 146.286v731.429c0 80.823-65.463 146.286-146.286 146.286v0z" />
<glyph unicode="&#xe908;" glyph-name="done-press" d="M877.714 960h-731.429c-80.823 0-146.286-65.463-146.286-146.286v-731.429c0-80.823 65.463-146.286 146.286-146.286h731.429c80.823 0 146.286 65.463 146.286 146.286v731.429c0 80.823-65.463 146.286-146.286 146.286zM820.005 527.653l-297.253-297.253c-23.479-23.479-61.513-23.479-84.919 0l-169.838 169.838c-23.479 23.479-23.479 61.513 0 84.919 23.479 23.479 61.513 23.479 84.992 0l127.342-127.342 254.757 254.757c23.479 23.479 61.513 23.479 84.992 0 23.406-23.479 23.406-61.44-0.073-84.919z" />
<glyph unicode="&#xe909;" glyph-name="done" d="M796.444 903.111h-568.889c-94.265 0-170.667-76.402-170.667-170.667v-568.889c0-94.265 76.402-170.667 170.667-170.667h568.889c94.265 0 170.667 76.402 170.667 170.667v568.889c0 94.265-76.402 170.667-170.667 170.667zM910.222 163.556c0-62.862-50.916-113.778-113.778-113.778h-568.889c-62.862 0-113.778 50.916-113.778 113.778v568.889c0 62.862 50.916 113.778 113.778 113.778h568.889c62.862 0 113.778-50.916 113.778-113.778v-568.889zM720.555 635.164l-309.248-310.841-116.508 116.508c-9.956 9.956-26.112 9.956-36.068 0s-9.956-26.112 0-36.068l122.937-122.937c0.114-7.339 2.901-14.677 8.476-20.309 7.054-7.111 16.725-9.273 25.828-7.566 8.135-1.707 16.896 0.171 23.211 6.485 4.437 4.437 6.599 10.183 7.111 16.043l315.62 317.269c11.378 11.492 11.378 30.037 0 41.529-11.492 11.378-29.98 11.378-41.358-0.114z" />
<glyph unicode="&#xe90a;" glyph-name="down01" d="M944.087 664l-432.087-432-432 432h864.087z" />
<glyph unicode="&#xe90b;" glyph-name="down02" d="M982.235 719.952c-19.973 21.187-52.481 21.187-72.457 0l-398.588-421.797-398.588 421.797c-19.973 21.187-52.402 21.187-72.457 0-19.973-21.106-19.973-55.475 0-76.658l434.815-460.208c19.973-21.187 52.402-21.187 72.457 0l434.736 460.208c20.055 21.187 20.055 55.475 0.081 76.658z" />
<glyph unicode="&#xe90c;" glyph-name="folder" d="M896-7.111h-768c-70.713 0-128 58.197-128 130.048v650.126c0 71.851 57.287 130.048 128 130.048h310.841l73.159-284.444h455.111l56.889-1.195v-494.592c0-71.794-57.287-129.991-128-129.991zM967.111 561.778h-455.111l-31.972 9.33c-10.581 4.039-19.684 13.369-23.154 26.51l-58.652 248.604h-284.444c-35.328 0-56.889-20.992-56.889-56.889v-682.667c0-35.897 78.45-56.889 113.778-56.889h682.667c35.328 0 113.778 20.992 113.778 56.889v455.111zM910.222 732.444c0 55.182-81.18 56.889-113.778 56.889h-227.556v56.889h284.444c35.328 0 113.778-3.186 113.778-56.889v-113.778h-56.889v56.889z" />
<glyph unicode="&#xe90d;" glyph-name="key-press" d="M286.948 960c-20.764 0-39.652-14.336-45.113-36.068l-229.888-918.528c-6.542-26.055-20.48-52.11-2.048-62.35 7.509-4.153 13.881-5.973 19.342-5.973 27.022 0 31.573 44.146 36.978 65.82l84.537 359.083c23.438 8.249 54.67 10.98 85.845 10.98 61.611 0 122.88-10.695 122.88-10.695 93.582-20.423 143.644-84.878 143.644-84.878 95.004-89.202 178.802-106.837 178.802-106.837 41.415-11.89 80.953-15.474 113.664-15.474 50.46 0 84.764 8.533 84.764 8.533 25.884 5.291 31.346 36.295 31.346 36.295l109.511 437.703c9.102 36.295-6.94 48.811-6.94 48.811-9.5 12.572-23.666 15.132-33.678 15.132-6.997 0-11.947-1.252-11.947-1.252-20.366-5.348-40.562-7.339-59.278-7.339-51.428 0-91.364 14.905-91.364 14.905-82.887 15.872-142.336 84.423-142.336 84.423-72.533 77.995-177.892 109.056-177.892 109.056-43.634 12.516-98.987 14.734-132.722 14.734-18.489 0-30.492-0.683-30.492-0.683l-0.057-0.341c-2.048 19.854-15.474 37.547-35.044 43.179-4.153 1.195-8.42 1.764-12.516 1.764v0z" />
<glyph unicode="&#xe90e;" glyph-name="key" d="M288.825 879.161c9.842-12.629 24.974-20.935 41.984-21.788 1.024-0.057 1.991-0.114 3.015-0.114 2.276 0 4.551 0.114 6.77 0.398 4.494 0.171 12.857 0.398 23.723 0.398 47.275 0 88.86-4.437 116.508-12.402 0.91-0.284 91.932-28.16 151.097-91.705 7.282-8.42 73.273-81.863 170.382-102.172 14.165-4.722 55.296-16.725 106.325-16.725 18.944 0 37.376 1.65 53.988 4.722l-106.098-423.822c-11.833-2.048-33.906-5.063-61.724-5.063-34.361 0-67.3 4.437-98.020 13.255-0.967 0.284-2.446 0.626-3.413 0.853-0.683 0.171-69.973 16.782-149.504 90.34-15.076 17.863-73.5 79.644-175.445 101.888-2.617 0.512-66.788 11.548-132.551 11.548-22.585 0-42.724-1.252-60.7-3.812l113.664 454.201zM286.208 958.919c-20.708 0-39.652-14.336-45.056-36.068l-229.945-918.528c-6.542-26.055-20.48-52.11-2.048-62.35 7.509-4.153 13.881-5.973 19.342-5.973 27.022 0 31.573 44.146 36.978 65.82l84.537 359.083c23.438 8.249 54.67 10.98 85.845 10.98 61.611 0 122.88-10.695 122.88-10.695 93.582-20.423 143.644-84.878 143.644-84.878 95.004-89.202 178.802-106.837 178.802-106.837 41.415-11.89 80.953-15.474 113.664-15.474 50.46 0 84.764 8.533 84.764 8.533 25.884 5.291 31.346 36.295 31.346 36.295l109.511 437.703c9.102 36.295-6.94 48.811-6.94 48.811-9.5 12.572-23.666 15.132-33.678 15.132-6.997 0-11.947-1.252-11.947-1.252-20.366-5.348-40.562-7.339-59.278-7.339-51.428 0-91.364 14.905-91.364 14.905-82.887 15.872-142.336 84.423-142.336 84.423-72.533 77.995-177.892 109.056-177.892 109.056-43.634 12.516-98.987 14.734-132.722 14.734-18.489 0-30.492-0.683-30.492-0.683l-0.057-0.341c-2.048 19.854-15.474 37.547-34.987 43.179-4.21 1.195-8.42 1.764-12.572 1.764v0z" />
<glyph unicode="&#xe90f;" glyph-name="list" d="M0 789.333h56.889v56.889h-56.889v-56.889zM170.667 846.222v-56.889h853.333v56.889h-853.333zM0 448h56.889v56.889h-56.889v-56.889zM170.667 448h853.333v56.889h-853.333v-56.889zM0 106.667h56.889v56.889h-56.889v-56.889zM170.667 106.667h853.333v56.889h-853.333v-56.889z" />
<glyph unicode="&#xe910;" glyph-name="logo" d="M868.386 925.867h-712.772c-85.333 0-155.614-70.349-155.614-155.75v-678.332c0-85.436 70.281-155.785 155.614-155.785h712.772c85.333 0 155.614 70.349 155.614 155.785v678.332c0 85.402-65.263 155.75-155.614 155.75zM286.106 162.099c-65.229 0-115.439 50.244-115.439 115.575s50.21 115.575 115.439 115.575c60.245 0 115.439-45.227 115.439-115.575 0.034-65.331-50.176-115.575-115.439-115.575zM441.719 624.401l-135.543-135.68c-15.053-5.018-15.053-10.035-30.106-10.035s-25.088 5.018-30.106 10.035l-80.316 80.384c-15.053 10.035-15.053 35.191 0 50.244 10.035 15.087 35.123 15.087 50.176 0l50.21-50.244 110.421 110.558c15.053 10.035 35.123 10.035 65.263-5.018 15.053-10.069 15.053-35.191 0-50.244zM853.333 243.2h-341.333c-20.207 0-18.295 20.855-18.295 41.097s-1.911 27.17 18.295 27.17h341.333c20.207 0 24.371-6.929 24.371-27.17s-4.164-41.097-24.371-41.097zM853.333 550.4h-341.333c-20.207 0-18.295 6.929-18.295 27.17s-1.911 41.097 18.295 41.097h341.333c20.207 0 24.371-20.821 24.371-41.097s-4.164-27.17-24.371-27.17zM286.106 322.901c-25.088 0-40.141-15.087-40.141-40.209s15.053-40.209 40.141-40.209c20.070 0 40.141 15.087 40.141 40.209 0.034 25.122-15.019 40.209-40.141 40.209z" />
<glyph unicode="&#xe911;" glyph-name="more" d="M91.034 538.999c-56.559 0-102.4-45.841-102.4-102.4s45.841-102.4 102.4-102.4c56.559 0 102.4 45.841 102.4 102.4 0 56.593-45.841 102.4-102.4 102.4zM500.634 538.999c-56.559 0-102.4-45.841-102.4-102.4s45.841-102.4 102.4-102.4c56.559 0 102.4 45.841 102.4 102.4 0 56.593-45.841 102.4-102.4 102.4zM910.234 538.999c-56.559 0-102.4-45.841-102.4-102.4s45.841-102.4 102.4-102.4c56.559 0 102.4 45.841 102.4 102.4 0 56.593-45.875 102.4-102.4 102.4z" />
<glyph unicode="&#xe912;" glyph-name="quan-press" d="M512 960c-282.752 0-512-229.248-512-512s229.248-512 512-512 512 229.248 512 512-229.248 512-512 512zM783.552 570.368l-311.872-311.808c-16-16-41.984-16-57.984 0l-173.248 173.248c-16 16-16 41.984 0 57.984s41.984 16 57.984 0l144.256-144.256 282.88 282.816c16 16 41.984 16 57.984 0s16-41.984 0-57.984z" />
<glyph unicode="&#xe913;" glyph-name="quan" d="M512 896c247.040 0 448-200.96 448-448s-200.96-448-448-448-448 200.96-448 448 200.96 448 448 448zM512 960c-282.752 0-512-229.248-512-512s229.248-512 512-512 512 229.248 512 512-229.248 512-512 512v0z" />
<glyph unicode="&#xe914;" glyph-name="recycle" d="M853.333 846.222l170.667-391.111c0 0-1.138-44.601-1.081-52.736 0-106.098-0.057-212.252 0.057-318.35-0.114-7.225-1.536-15.189-7.111-20.252-5.063-5.689-41.7-6.94-48.754-6.94-318.692-0.057-910.222 0-910.222 0s-39.424-0.91-46.706 6.827c-8.021 7.339-7.225 29.355-7.225 29.355l-2.958 397.084 170.667 356.124c32.37-2.731 682.667-7.111 682.667 0zM227.556 789.333l-170.667-341.333h284.444c0 0 0-170.667 170.667-170.667 118.841 2.617 113.778 170.667 113.778 170.667h341.333l-170.667 348.444-568.889-7.111zM56.889 391.111c0-98.076 0-284.444 0-284.444h910.222v284.444h-284.444c0 0-8.647-152.917-170.667-170.667-227.556 0-227.556 170.667-227.556 170.667h-227.556z" />
<glyph unicode="&#xe915;" glyph-name="rili" d="M568.889 448h-113.778v-113.778h113.778v113.778zM796.444 789.333v113.778h-56.889v-113.778h-455.111v113.778h-56.889v-113.778h-170.667v-796.444h910.222v796.444h-170.667zM910.222 49.778h-796.444v455.111h796.444v-455.111zM910.222 561.778h-796.444v170.667h113.778v-113.778h56.889v113.778h455.111v-113.778h56.889v113.778h113.778v-170.667zM341.333 448h-113.778v-113.778h113.778v113.778zM796.444 448h-113.778v-113.778h113.778v113.778zM568.889 220.444h-113.778v-113.778h113.778v113.778zM341.333 220.444h-113.778v-113.778h113.778v113.778zM796.444 220.444h-113.778v-113.778h113.778v113.778z" />
<glyph unicode="&#xe916;" glyph-name="sort" d="M334.080 896l-249.728-249.664c-13.76-13.76-13.76-36.16 0-49.92 13.824-13.824 36.16-13.824 49.92 0l185.728 185.664v-782.080h64l-1.216 844.864 1.216 1.216c13.824 13.76 13.824 36.096 0 49.92-13.76 13.824-36.16 13.824-49.92 0zM949.632 312.768c-13.824 13.824-36.16 13.824-49.92 0l-195.712-195.712v778.944c0 0-30.976 64-64 0v-832c0-8.064 0.192-15.040 0.64-21.12-0.96-6.784-0.128-13.568 2.88-19.904 4.672-19.2 13.824-19.072 25.152-18.944 4.928-0.896 9.792-0.832 14.656 0.384 0.064 0 0.192 0.064 0.256 0.064 6.016 1.472 11.776 3.968 16.448 8.704l249.664 249.664c13.76 13.76 13.76 36.16-0.064 49.92z" />
<glyph unicode="&#xe917;" glyph-name="team" d="M409.344 896v0c-140.8 0-255.36-114.496-255.36-255.36 0-138.752 111.296-251.904 249.28-255.168 2.496-0.576 5.12-0.768 7.808-0.512 197.056-0.128 358.848-161.792 358.848-360.576 0-13.504 10.88-24.384 24.384-24.384s24.384 10.88 24.384 24.384c0 183.808-121.856 339.712-289.024 391.168 80.32 43.072 135.040 127.808 135.040 225.088 0 140.8-114.56 255.36-255.36 255.36zM409.344 434.112v0c-113.92 0-206.592 92.608-206.592 206.528s92.672 206.592 206.592 206.592c113.92 0 206.592-92.608 206.592-206.592 0-113.856-92.736-206.528-206.592-206.528zM119.424 313.344v0c-77.056-77.248-119.488-179.904-119.424-288.96 0-13.504 10.88-24.384 24.384-24.384 13.44 0 24.384 10.88 24.384 24.384 0 96 37.376 186.496 105.28 254.528 9.472 9.536 9.472 24.96-0.064 34.496-9.6 9.472-25.024 9.472-34.56-0.064zM667.264 427.904v0c0.064-13.504 10.88-24.384 24.384-24.448 156.416 0 283.648-135.36 283.648-301.824 0-13.44 10.944-24.384 24.384-24.384 13.504 0 24.384 10.88 24.384 24.384-0.064 154.368-95.168 285.632-226.752 332.288 61.888 38.272 103.488 108.992 103.488 189.824 0 121.408-93.824 220.16-209.216 220.16-13.44 0-24.384-10.944-24.384-24.384s10.88-24.384 24.384-24.384c88.448 0 160.448-76.864 160.448-171.328s-71.936-171.328-160.448-171.328c-13.44 0-24.384-10.88-24.384-24.384 0 0 0 0 0-0.064v-0.128z" />
<glyph unicode="&#xe918;" glyph-name="today" d="M512 960c-282.795 0-512-229.205-512-512s229.205-512 512-512 512 229.205 512 512-229.205 512-512 512zM512-7.509c-251.563 0-455.509 203.947-455.509 455.509s203.947 455.509 455.509 455.509 455.509-203.947 455.509-455.509-203.947-455.509-455.509-455.509zM667.42 329.785l-155.42 104.505v219.136c0 12.231-9.899 22.13-22.13 22.13h-12.629c-12.231 0-22.13-9.899-22.13-22.13v-230.571c-0.228-1.479 0-2.844 0-4.324v-5.291c0-10.468 7.396-18.83 17.124-21.106l165.717-111.388c14.052-7.851 32.085-3.186 40.22 10.354 8.192 13.54 3.356 30.891-10.752 38.684z" />
<glyph unicode="&#xe919;" glyph-name="up01" d="M80 232l432 432 432-432h-864z" />
<glyph unicode="&#xe91a;" glyph-name="up02" d="M983.852 293.466l-434.736 460.208c-20.055 21.187-52.481 21.187-72.457 0l-434.815-460.208c-19.973-21.187-19.973-55.554 0-76.66 20.055-21.187 52.481-21.187 72.457 0l398.588 421.797 398.588-421.797c19.973-21.187 52.481-21.187 72.457 0s19.973 55.475-0.081 76.66z" />
<glyph unicode="&#xe91b;" glyph-name="zhou" d="M398.222 106.667h56.889v341.333h-56.889v-341.333zM568.889 106.667h56.889v455.111h-56.889v-455.111zM56.889 901.916v-909.028h910.222v909.028h-910.222zM910.222 48.583h-796.444v797.639h796.444v-797.639zM283.989 559.787h-56.206l-0.228-453.12h56.889l-0.455 453.12zM853.333 732.444h-625.778v-56.889h625.778v56.889zM740.011 559.787l-0.455-453.12h56.889l-0.228 453.12h-56.206z" />
<glyph unicode="&#xe91c;" glyph-name="rili-big-focus" d="M837.399 843.636l-0.303 116.364h-45.824v-116.364h-582.237l-0.303 116.364h-45.824v-116.364h-116.364v-861.091h930.909v861.091h-140.055zM162.909 797.091v-116.364h46.545l-0.303 116.364h582.121v-116.364h46.545l-0.303 116.364h93.393v-155.159l-7.75 15.523h-830.068v139.636h69.818zM93.091 29.091v581.818h837.818v-581.818h-837.818z" />
<glyph unicode="&#xe91d;" glyph-name="ask" d="M473.024 203.456h70.848v-75.456h-70.848v75.456zM651.968 725.568c-34.688 30.976-79.36 46.464-133.888 46.464-25.728 0-50.752-4.096-75.008-12.416-24.128-8.256-46.144-21.184-65.728-38.592-19.648-17.536-33.6-36.864-41.856-58.048s-13.056-50.432-14.272-87.808h59.84c7.36 96.96 52.16 145.344 134.336 145.344 38.080 0 68.288-10.432 90.624-31.296 22.4-20.864 33.536-48.512 33.536-82.816 0-22.656-4.48-41.6-13.376-56.64-8.832-14.976-30.912-40.576-66.176-76.8s-58.176-66.752-68.544-91.52c-10.432-24.768-16.256-55.296-17.472-91.52h63.488c0 39.808 4.288 68.416 12.928 85.504 8.576 17.216 31.872 43.84 69.952 80.064 34.944 32.576 57.6 58.304 68.032 77.312 10.368 19.072 15.616 41.728 15.616 68.096-0.064 52.096-17.344 93.696-52.032 124.672v0zM512 908.8c254.080 0 460.8-206.72 460.8-460.8s-206.72-460.8-460.8-460.8-460.8 206.72-460.8 460.8 206.72 460.8 460.8 460.8v0zM512 960c-282.752 0-512-229.248-512-512s229.248-512 512-512 512 229.248 512 512-229.248 512-512 512v0z" />
<glyph unicode="&#xe91e;" glyph-name="down03" d="M281.271 903.891l455.802-455.891-455.802-455.802v911.693z" />
<glyph unicode="&#xe91f;" glyph-name="uniE91F" d="M512 960c-282.77 0-512-229.23-512-512s229.23-512 512-512c282.77 0 512 229.23 512 512s-229.23 512-512 512zM532.261 667.429c16.53 0.073 29.55-5.705 37.961-14.775 8.411-8.997 12.288-20.919 12.288-33.134 0-31.671-27.648-61.586-66.194-61.733h-0.951c-30.208 0-49.079 20.407-49.371 50.103 0.073 25.6 22.674 59.392 66.267 59.538zM582.144 247.15c-57.637-57.271-128.731-91.429-155.794-91.721h-0.146c-9.143 0-18.651 2.194-25.527 8.997-6.875 6.875-10.459 17.262-10.459 32.183 0 11.41 2.048 35.986 6.729 53.76l41.326 162.085c1.975 8.997 3.072 15.36 3.145 18.651-7.095-2.341-38.546-23.259-54.126-34.304l-5.486-3.657-16.091 39.717 3.145 2.706c58.222 48.933 128.146 88.137 160.183 88.503 9.143 0.146 17.115-4.096 21.431-10.971 4.462-6.802 6.144-15.579 6.144-26.185 0-11.557-2.121-35.694-6.071-51.346l-45.349-167.936c-2.121-8.046-2.999-13.97-2.999-17.701 0-2.121 0.293-3.438 0.512-4.096 4.827 0.512 37.083 20.626 57.929 38.107l4.901 4.096 17.189-34.377 2.414-3.511-2.999-2.999z" />
<glyph unicode="&#xe920;" glyph-name="uniE920" d="M512 960c-282.77 0-512-229.23-512-512s229.23-512 512-512c282.77 0 512 229.23 512 512s-229.23 512-512 512v0 0zM252.123 239.909l63.927 141.897 108.325-101.595-172.251-40.302zM444.489 301.714l-106.935 100.279 258.341 242.249 107.008-100.279-258.414-242.249zM757.614 590.482l-30.939-27.355-108.398 101.961 29.038 28.818c30.72 28.818 58.149 9.362 88.795-19.383 30.647-28.818 52.224-55.296 21.504-84.041v0 0z" />
<glyph unicode="&#xe921;" glyph-name="uniE921" d="M128 0v256h64v-192h768v832h-768v-192h-64v256h896v-960h-896zM448.96 652.224l50.816 50.816 203.264-203.264v-39.552l-203.264-203.264-50.816 50.816 140.224 140.224h-589.184v64h589.184l-140.224 140.224z" />
<glyph unicode="&#xe922;" glyph-name="2" d="M512 153.728l-410.112 358.848h-37.888v-56.576l448-392 448 392v56.576h-37.888l-410.112-358.848zM922.112 832.576l-410.112-358.848-410.112 358.848h-37.888v-56.576l448-392 448 392v56.576h-37.888z" />
<glyph unicode="&#xe923;" glyph-name="22" d="M512 832l-448-392v-56.512h37.888l410.112 358.784 410.112-358.848h37.888v56.576l-448 392zM64 120v-56.512h37.888l410.112 358.784 410.112-358.848h37.888v56.512l-448 392.064-448-392z" />
</font>
</defs>
</svg>
